<svg xmlns="http://www.w3.org/2000/svg" width="24" height="25" viewBox="0 0 24 25" fill="none">
  <path d="M13.4099 12.9873L19.7099 6.69731C19.8982 6.509 20.004 6.25361 20.004 5.98731C20.004 5.72101 19.8982 5.46561 19.7099 5.27731C19.5216 5.089 19.2662 4.98322 18.9999 4.98322C18.7336 4.98322 18.4782 5.089 18.2899 5.27731L11.9999 11.5773L5.70994 5.27731C5.52164 5.089 5.26624 4.98322 4.99994 4.98322C4.73364 4.98322 4.47824 5.089 4.28994 5.27731C4.10164 5.46561 3.99585 5.72101 3.99585 5.98731C3.99585 6.25361 4.10164 6.509 4.28994 6.69731L10.5899 12.9873L4.28994 19.2773C4.19621 19.3703 4.12182 19.4809 4.07105 19.6027C4.02028 19.7246 3.99414 19.8553 3.99414 19.9873C3.99414 20.1193 4.02028 20.25 4.07105 20.3719C4.12182 20.4937 4.19621 20.6043 4.28994 20.6973C4.3829 20.791 4.4935 20.8654 4.61536 20.9162C4.73722 20.967 4.86793 20.9931 4.99994 20.9931C5.13195 20.9931 5.26266 20.967 5.38452 20.9162C5.50638 20.8654 5.61698 20.791 5.70994 20.6973L11.9999 14.3973L18.2899 20.6973C18.3829 20.791 18.4935 20.8654 18.6154 20.9162C18.7372 20.967 18.8679 20.9931 18.9999 20.9931C19.132 20.9931 19.2627 20.967 19.3845 20.9162C19.5064 20.8654 19.617 20.791 19.7099 20.6973C19.8037 20.6043 19.8781 20.4937 19.9288 20.3719C19.9796 20.25 20.0057 20.1193 20.0057 19.9873C20.0057 19.8553 19.9796 19.7246 19.9288 19.6027C19.8781 19.4809 19.8037 19.3703 19.7099 19.2773L13.4099 12.9873Z" fill="#212121"/>
</svg>